<?xml version="1.0" encoding="utf-8"?>
<!DOCTYPE svg PUBLIC "-//W3C//DTD SVG 1.0//EN" "http://www.w3.org/TR/2001/REC-SVG-20010904/DTD/svg10.dtd">
<svg version="1.0" xmlns="http://www.w3.org/2000/svg" width="426px" height="336px" viewBox="0 0 426 336" preserveAspectRatio="xMidYMid meet">
 <g fill="#f0f0f0">
  <path d="M71 299.20 c-8.90 -1.80 -16.05 -2.70 -24.50 -3.05 -8.80 -0.35 -10.10 -0.75 -13.20 -4.20 -3.65 -4 -5.95 -11.15 -5.95 -18.20 0 -2.45 0.30 -5.15 0.60 -5.95 1.40 -3.50 5.30 -8.45 9.45 -12 8.70 -7.40 25.10 -24.85 35.60 -37.80 10.35 -12.85 34.65 -39.85 38.15 -42.40 0.75 -0.55 0.85 -1.15 0.60 -3.50 -0.15 -1.60 -0.35 -9.10 -0.50 -16.75 -0.10 -7.60 -0.35 -14.05 -0.45 -14.30 -0.25 -0.40 -0.45 -62.05 -0.20 -72.30 0.05 -2.45 0 -8 -0.10 -12.25 -0.20 -6.50 -0.10 -8.25 0.70 -10.75 2.10 -7 6.55 -12.55 12.05 -15.05 3.75 -1.70 10.70 -3.10 18.80 -3.70 16.10 -1.20 20.15 -1.55 27.45 -2.50 14.55 -1.90 33.15 -2.65 54 -2.15 10.30 0.20 30.45 0.35 44.75 0.25 14.30 -0.10 34.35 0.10 44.55 0.45 16.90 0.55 18.75 0.55 20.95 -0.20 3.75 -1.30 12.30 -1.65 16.45 -0.65 4.80 1.15 11 5.30 12.65 8.50 0.70 1.40 2.15 13.85 2.15 19 0 1.60 0.35 3 1.05 4.15 0.70 1.10 0.95 2.10 0.75 2.95 -0.25 0.90 0 1.65 0.75 2.60 1.05 1.30 1.05 1.65 0.75 10.10 -1.10 30.05 -1.90 42.55 -3 46.90 -0.50 1.95 -0.85 7.30 -1.10 16.85 l-0.30 14 1.10 1.20 c1.10 1.10 1.15 1.45 0.80 6.10 -0.30 4.65 -0.25 5 0.90 6.70 1.35 1.95 1.25 2.80 -0.45 4.75 -0.60 0.70 -1.25 1.85 -1.40 2.55 -0.20 0.70 -0.90 2.10 -1.60 3.15 -0.70 1 -1.25 1.95 -1.25 2.05 0 0.10 1.10 1 2.45 2 2.40 1.70 6.55 7.15 6.55 8.50 0 0.40 -0.50 1.30 -1.15 2.10 -0.85 1.05 -1.35 2.75 -2 6.65 -1.20 7.70 -2.65 11.45 -8.65 22.15 -3 5.25 -6.90 12.65 -8.75 16.35 -1.80 3.70 -5.55 10.45 -8.30 15 -6.40 10.50 -10.15 18.05 -14.35 28.75 -5.30 13.35 -6.30 14.65 -12.65 16 -2.15 0.45 -5.60 1.35 -7.65 2 -7.80 2.50 -7.45 2.45 -27 2.50 -18.35 0 -18.90 0.05 -24.75 1.35 -8.95 1.95 -11 2.05 -22.25 1.15 -8.50 -0.70 -13.40 -0.80 -28.75 -0.50 -10.15 0.20 -38.20 0.45 -62.25 0.50 -42 0.10 -44.05 0.15 -50.65 1.20 -8.65 1.30 -13.50 1.25 -20.85 -0.25z m20.10 -5.75 c6.35 -1 8.65 -1.05 49.65 -1.20 23.65 -0.05 52 -0.30 63 -0.50 16.60 -0.30 21.70 -0.20 30 0.45 10.95 0.90 12.75 0.80 21.25 -1.10 5.60 -1.30 6.15 -1.35 24 -1.35 19.30 -0.05 20.65 -0.15 26.10 -2.05 1.90 -0.70 5.15 -1.55 7.20 -1.95 2.05 -0.40 3.95 -0.85 4.20 -1 1 -0.65 3 -4.80 5.75 -11.95 3.70 -9.60 8.40 -19 14.60 -29.30 2.75 -4.55 6.50 -11.30 8.30 -15 1.85 -3.70 5.20 -10 7.50 -14 7.90 -13.80 9.35 -17.95 9.60 -27.35 l0.15 -5.55 -2.10 -1.50 c-5.05 -3.60 -7.55 -4.20 -15.25 -3.55 -9.20 0.75 -11.35 0.70 -12.20 -0.15 -0.70 -0.65 -1.70 -0.60 -9.45 0.65 -4.75 0.75 -9.45 1.40 -10.45 1.40 -1.65 0.05 -1.95 0.25 -2.85 2.20 -3.05 6.50 -7.25 7.10 -45.10 6.70 -15.10 -0.15 -30.95 -0.65 -39.50 -1.15 -7.85 -0.50 -20.30 -0.90 -27.75 -0.95 -11.60 0 -14.10 0.15 -17.60 0.95 -5.05 1.15 -6.30 0.80 -7.10 -2.05 -0.30 -1.05 -0.55 -2.55 -0.55 -3.40 0 -0.80 -0.15 -2 -0.30 -2.60 -0.30 -1.15 -0.40 -1.15 -9.05 -1.15 -5.25 0 -9.10 0.20 -9.70 0.55 -0.75 0.35 -2.25 0.35 -5.45 -0.10 -4.70 -0.65 -9.70 -0.30 -18.60 1.40 -4.20 0.80 -4.45 0.80 -5.40 -0.10 -0.85 -0.80 -1.25 -0.85 -2.95 -0.30 -1.05 0.30 -3.15 1.55 -4.65 2.80 -1.50 1.25 -3.15 2.25 -3.65 2.25 -1.70 0 -19.80 19.90 -37.30 41 -9.85 11.90 -17.40 20.15 -26.70 29.25 -5.75 5.60 -10.75 11.75 -10.75 13.20 0 1.40 -1.35 2.55 -3 2.55 -1.30 0 -1.45 0.20 -1.75 2.40 -0.35 2.65 0.80 9.15 2.20 12.40 0.50 1.10 1.60 2.80 2.45 3.75 l1.55 1.80 7.90 0.35 c8.75 0.40 15.40 1.20 24.40 3 7.55 1.55 10.95 1.55 19.35 0.25z m210.40 -113.05 c1.90 -0.60 2.45 -1.05 3.55 -3.15 1.65 -3.15 3.90 -4.75 6.70 -4.75 1.10 0 5.40 -0.55 9.55 -1.25 10.65 -1.80 15.20 -2.10 16.80 -1.05 1.10 0.70 1.95 0.75 7 0.30 3.85 -0.35 6.65 -0.35 8.40 0 1.45 0.30 2.80 0.50 3 0.50 0.45 0 3.20 -5.45 2.90 -5.75 -0.10 -0.10 -2.85 -0.70 -6.05 -1.25 l-5.90 -1.05 -1.75 1 c-0.95 0.60 -2.05 1.05 -2.35 1.05 -0.35 0 -1.50 0.45 -2.60 1 -1.10 0.55 -2.45 1 -3 1 -0.55 0 -1.40 -0.45 -1.90 -1 -0.80 -0.95 -1.45 -1 -10.70 -1 -5.45 0 -18.10 -0.35 -28.15 -0.80 -23.70 -1 -48.60 -1.10 -64.25 -0.25 -12.15 0.65 -46.30 0.55 -81.30 -0.25 -9.90 -0.20 -12.90 -0.10 -15.15 0.45 -2.65 0.70 -2.85 0.70 -4.05 -0.25 -1.80 -1.40 -1.50 -3.30 0.60 -4.65 0.90 -0.55 1.75 -1.35 1.95 -1.75 0.20 -0.40 0.45 -7.80 0.55 -16.40 0.25 -14.20 0.15 -15.75 -0.60 -16.60 -0.75 -0.80 -0.80 -2.35 -0.65 -14.60 0.15 -16 -0.40 -43.15 -1.15 -53.25 -0.30 -3.90 -0.40 -7.50 -0.25 -8 0.40 -1.25 4.70 -3.75 9.15 -5.35 6.35 -2.25 10.55 -2.55 27.05 -1.85 10.65 0.40 17.75 0.45 25.10 0.10 5.65 -0.30 16.85 -0.55 24.90 -0.55 8 0 14.60 -0.10 14.60 -0.20 0 -0.10 -0.35 -1 -0.75 -1.95 -1.15 -2.80 -0.95 -6.40 0.45 -8.50 l1.20 -1.75 -6.30 -0.35 c-12.45 -0.75 -43.20 0.35 -56.10 2 -9.55 1.20 -14.25 1.70 -25.50 2.50 -11.45 0.85 -16.80 1.70 -20.60 3.35 -4.45 1.90 -8.45 7.65 -9.35 13.50 -0.25 1.45 -0.25 6.25 0 10.70 0.30 6.25 0.65 8.55 1.45 10.40 1.25 3 1.25 2.90 -0.35 4.85 l-1.40 1.65 0 15.75 c0.05 21.85 0.50 41.20 0.95 42 0.25 0.40 0.40 6 0.40 12.50 -0.05 16.65 0.45 25.35 1.40 25.15 4.50 -1.05 7 -1.20 8.15 -0.45 1.10 0.70 1.60 0.70 5.15 0.05 2.90 -0.55 8.90 -0.85 22.55 -1 17.20 -0.25 18.70 -0.20 19.95 0.60 1.45 1 3.70 5.25 3.70 7.10 0 1.20 0.05 1.20 3.15 0.75 5.15 -0.70 27.10 -0.45 44.85 0.50 23.35 1.25 22.60 1.20 49 1.10 18.90 -0.10 24.20 -0.25 26 -0.85z m36.75 -22.45 c1.30 -0.75 2.80 -1.10 5.15 -1.20 5.10 -0.15 4.95 0.10 4.50 -6.15 -0.60 -8.70 -1.90 -26.65 -2.10 -29.05 -0.10 -1.25 0.05 -2.70 0.30 -3.30 0.35 -0.75 0.25 -2.60 -0.30 -6.05 -0.40 -2.70 -1.25 -10.25 -1.80 -16.70 -0.55 -6.45 -1.60 -16 -2.30 -21.25 -2 -15 -2 -15 -0.80 -16.45 l1 -1.30 -1 -3.35 c-1.35 -4.45 -3.05 -6.95 -5 -7.35 -0.85 -0.15 -4.05 -0.30 -7.15 -0.30 l-5.60 0 -0.35 9.15 c-1.15 32.45 -1.90 49.75 -2.25 50.60 -0.25 0.60 -0.10 1.45 0.40 2.30 0.60 1.05 0.65 1.70 0.30 2.75 -0.60 1.65 -1.80 2.10 -6.10 2.15 -1.75 0.05 -4.05 0.40 -5.15 0.85 -1.55 0.65 -2.20 0.70 -2.65 0.25 -0.35 -0.35 -3.45 -0.55 -9.30 -0.55 -12.35 0 -19.05 0.70 -24.75 2.50 -6 1.95 -8.20 1.95 -10.20 0.10 -0.85 -0.80 -1.80 -2.40 -2.20 -3.65 -0.85 -2.80 -0.85 -17.45 0 -29.20 1 -13.55 1.05 -16.10 0.55 -23 -0.75 -10.85 -0.70 -11.65 0.30 -12.75 1.20 -1.35 3.15 -1.10 4.30 0.50 1.20 1.75 2.15 19.10 1.45 28 -1.60 21.35 -1.75 32.95 -0.55 34.90 0.60 1.05 9.70 -1.85 9.20 -2.90 -1.85 -4.30 -2.25 -6.40 -1.95 -10 0.45 -6 3.15 -14.95 5.40 -17.80 1.05 -1.30 1.05 -1.35 0.10 -1.85 -2.20 -1.15 -5.50 -5.20 -6.40 -7.85 -1.30 -3.55 -1.25 -8.10 0.05 -11.05 0.90 -1.95 2 -3.30 7 -8.65 0.80 -0.80 2.60 -2 4.10 -2.70 2.30 -1.05 3.15 -1.20 6 -0.95 6 0.55 15.40 4.35 18.90 7.65 2.75 2.65 3.35 4.90 2.65 10.35 -0.90 7.40 -3.10 13.05 -6.40 16.50 l-1.80 1.85 1.60 0 c1.95 0 2.50 0.80 5.35 7.70 2.55 6.15 3.45 10.15 3.10 13.40 -0.25 1.80 -0.15 2.40 0.35 2.40 0.55 0 0.70 -1.05 0.75 -4.35 0.05 -2.45 0.25 -9.25 0.55 -15.15 0.25 -5.90 0.75 -17.50 1.05 -25.75 0.30 -8.20 0.55 -15.20 0.60 -15.50 0.15 -0.80 -5.80 -1.15 -25.65 -1.50 -17.75 -0.35 -18.55 -0.35 -29.75 1 -6.30 0.70 -15.50 1.45 -20.40 1.60 -8.10 0.30 -8.80 0.35 -8.15 1.10 1.80 1.95 1.95 3.60 2.05 20.05 0 8.95 0.25 22.80 0.50 30.75 l0.40 14.55 -1.60 1.35 c-1.55 1.25 -1.90 1.35 -6.50 1.35 -5.10 0 -17.70 -1.10 -23.80 -2.10 -2 -0.35 -10.35 -0.60 -19.75 -0.65 -8.95 -0.05 -16.65 -0.25 -17.10 -0.45 -0.70 -0.30 -0.90 -0.20 -0.90 0.50 0 2.60 -3.85 3.65 -5.30 1.45 -0.70 -1.10 -0.80 -2.20 -0.50 -7.90 0.15 -3.65 0.45 -18.05 0.60 -32.10 l0.30 -25.50 1.30 -1.10 1.35 -1.15 -5.75 0 c-7.20 0 -11.05 0.65 -16.10 2.55 l-3.95 1.55 0.25 2.05 c1 7.95 1.15 15.25 1.45 53.95 0.05 11.50 0.25 15.50 0.75 15.95 0.45 0.50 0.60 3.40 0.65 10.65 0.05 5.55 0.20 10.60 0.40 11.30 0.20 0.70 0.05 3.40 -0.30 6 -0.35 2.60 -0.60 5.15 -0.65 5.65 0 0.85 0.45 0.90 6.40 0.70 9.20 -0.40 10.95 -0.35 13.55 0.25 3.85 0.90 54.95 1.15 71.30 0.35 16.40 -0.80 43.40 -0.70 63.75 0.25 7.85 0.35 20.15 0.70 27.35 0.75 12.55 0.05 13.15 0 14.90 -1z m21.10 -0.80 c-0.15 -1.05 -0.50 -2.90 -0.85 -4.15 -0.90 -3.30 -0.25 -33.05 0.75 -37.45 0.90 -3.80 1.50 -11.15 2.20 -26.55 0.95 -20.70 0.95 -20.35 -0.65 -21.80 -1.30 -1.25 -1.35 -1.45 -1 -4.10 0.45 -3.15 0.45 -3.10 -0.20 -8.85 -0.25 -2.20 -0.75 -7.35 -1.10 -11.50 -0.30 -4.10 -0.65 -8 -0.80 -8.55 -0.10 -0.60 -1.45 -2 -2.95 -3.20 -3.05 -2.35 -5.50 -2.90 -9.10 -2.10 -1.65 0.40 -2.40 0.30 -3.50 -0.30 -1.70 -0.90 -3.45 -0.85 -7.55 0.25 -2.90 0.75 -4.65 0.75 -20.60 0.20 -11.80 -0.40 -25.10 -0.50 -41.45 -0.25 l-24.05 0.35 1.75 1.90 c2.35 2.60 3.25 4.55 3.25 7 l0 2.10 2.90 -0.35 c1.55 -0.20 5.65 -0.65 9.10 -1.05 7.40 -0.90 26.85 -1 40.65 -0.25 5.20 0.30 14.55 0.70 20.85 0.95 10.50 0.40 11.60 0.50 13.25 1.55 3.70 2.30 6.50 8.50 8 17.55 1 6.35 1 9.10 -0.15 10.10 -0.85 0.75 -0.85 1.15 -0.30 5.10 0.35 2.35 1.20 10.65 1.95 18.40 1.50 16.60 2.15 21.50 3.05 23.80 0.95 2.25 0.90 3.80 -0.15 4.80 -0.80 0.80 -0.80 1.60 0.05 12.45 0.45 6.35 1 14.30 1.15 17.65 0.15 3.35 0.45 6.35 0.65 6.65 0.20 0.35 1.15 0.80 2.05 1 3 0.70 3.10 0.65 2.80 -1.35z m-129.60 -59 c-0.25 -6.55 -0.45 -19.20 -0.50 -28.10 -0.10 -15.35 -0.15 -16.20 -1.05 -16.70 -2.05 -1.10 -2.30 -3.40 -0.55 -5.25 l1.10 -1.25 -20.50 0.45 c-11.25 0.25 -25.55 0.40 -31.75 0.30 -6.20 -0.05 -11 0.05 -10.70 0.25 1.55 1.10 1.70 2.75 1.65 16.50 -0.05 7.65 -0.20 20.05 -0.40 27.60 -0.20 8.95 -0.15 13.70 0.20 13.80 0.30 0.05 1.50 0.40 2.75 0.75 1.25 0.35 3.45 0.70 4.95 0.85 l2.75 0.25 -0.85 -1.25 c-0.75 -1.15 -0.75 -1.65 0.20 -7.20 1.25 -7.60 2.20 -10.35 4.25 -12.65 l1.70 -1.90 -1.40 -1.50 c-3 -3.20 -3.25 -8.35 -0.65 -15.15 2.40 -6.25 5.95 -9.80 10.15 -10 1.15 -0.05 2.75 -0.55 3.45 -1.05 1.20 -0.80 1.75 -0.85 5.45 -0.35 10.30 1.25 15.70 6.10 15.70 13.95 0 4.25 -1.75 9.80 -3.95 12.70 -0.95 1.30 -1.75 2.40 -1.75 2.50 0 0.10 0.65 0.30 1.45 0.45 2.25 0.45 4.35 2.55 5.10 5.20 0.75 2.60 0.95 12.50 0.30 16 l-0.35 2.10 2.60 0.20 c1.45 0.10 4.55 0.20 6.85 0.25 l4.20 0.10 -0.40 -11.85z m-19.35 8.95 c0.85 -1.80 1.30 -8.65 0.75 -12.10 -0.40 -2.75 -0.40 -2.75 -2.40 -3 -1.50 -0.20 -2.20 -0.60 -3 -1.80 -1 -1.50 -1.05 -1.55 -5.25 -1.55 -3.75 0 -9.35 -0.75 -11.20 -1.45 -0.40 -0.15 -0.80 0.25 -1 1 -0.15 0.70 -0.95 1.60 -1.75 2.05 -1.75 0.90 -2.15 2.05 -3.55 9.70 -0.55 3.15 -1.20 5.95 -1.50 6.30 -0.40 0.45 1.95 0.70 10.15 0.95 5.80 0.20 11.85 0.55 13.35 0.75 4.55 0.65 4.70 0.65 5.40 -0.85z m86.60 -0.10 l9.90 0 0.60 -1.50 c1.20 -2.85 0.10 -7.45 -3.55 -15.35 -1.95 -4.15 -2.05 -4.45 -1.30 -5.70 l0.75 -1.35 -1.80 0.50 c-2.20 0.60 -4.70 0.25 -9.65 -1.40 l-3.80 -1.25 -1.85 1.10 c-1 0.60 -2.15 1.65 -2.50 2.40 -1.30 2.45 -3.25 9.50 -3.60 12.65 -0.25 2.75 -0.10 3.65 1.10 6.85 l1.45 3.65 2.20 -0.30 c1.20 -0.15 6.65 -0.30 12.05 -0.30z m-91.05 -26.40 c3.25 -3.45 4.60 -10.15 2.70 -13.75 l-0.80 -1.60 -0.50 1.70 c-0.50 1.90 -1.60 3 -3.05 3.05 -1.15 0 -2.80 -1.35 -2.80 -2.35 0 -0.50 -0.65 -0.20 -1.85 0.80 -2.25 1.85 -4.25 2 -5.35 0.45 -1.60 -2.25 -0.70 -4.20 2.40 -5.40 1.30 -0.45 1.70 -0.40 2.95 0.55 1.20 0.85 1.55 0.95 1.90 0.40 0.80 -1.25 0.15 -1.70 -2.75 -2 -2.25 -0.25 -3.25 -0.10 -4.70 0.60 -1 0.55 -2.30 0.95 -2.90 0.95 -2.80 0 -7.15 10.55 -5.75 13.95 1.20 2.75 6.35 4.45 14 4.50 l4.70 0.05 1.80 -1.90z m95.35 -3.70 c0.95 -1.05 0.95 -1.05 -0.05 -0.65 -0.55 0.20 -1.50 0.50 -2.15 0.60 -1.70 0.40 -1.85 1.15 -0.20 1.15 0.85 0 1.85 -0.45 2.40 -1.10z m-13.30 -2.65 c0 -0.15 -0.35 -0.85 -0.80 -1.55 -0.60 -0.85 -0.75 -1.90 -0.55 -3.55 0.25 -2.15 0.55 -2.65 3.95 -5.80 3.65 -3.40 4.15 -3.60 6.50 -2.60 0.80 0.30 0.85 0.25 0.20 -1 -0.90 -1.70 -0.50 -3.10 1.05 -3.95 1.15 -0.60 1 -0.70 -3.20 -1.95 -7 -2.15 -7.65 -2 -12.55 3.10 -3.60 3.75 -4.10 4.70 -4.10 7.85 0 4.30 1.85 6.85 6.25 8.65 2.65 1.05 3.25 1.20 3.25 0.80z m11 -3.55 c1.10 -0.45 2 -1 2 -1.30 0 -0.25 -1.20 -1 -2.60 -1.65 l-2.65 -1.20 -1.65 1.60 -1.65 1.60 1.10 0.85 c1.30 1.10 2.85 1.15 5.45 0.10z m7.10 -7.30 c0.10 -2.75 -0.15 -4.10 -0.85 -4.85 -0.60 -0.65 -0.75 -0.55 -1.20 0.50 -0.65 1.75 -1.85 2.60 -3.30 2.30 -0.70 -0.10 -1.20 -0.10 -1.05 0 0.40 0.45 5.55 3.55 5.95 3.60 0.20 0.05 0.40 -0.70 0.45 -1.55z m-59.30 -25.60 c0.90 -0.70 0.85 -0.80 -1.25 -2.80 -1.70 -1.60 -2.40 -2 -3.25 -1.75 -0.55 0.20 -1.80 0.45 -2.65 0.60 -1.30 0.20 -1.65 0.50 -1.65 1.40 0 1.90 2.20 3.25 5.20 3.25 1.45 0 3.05 -0.30 3.60 -0.70z"/>
  <path d="M211.75 289.95 c-15.25 -0.90 -53.35 -1.40 -61.75 -0.85 -4.55 0.30 -9.15 0.40 -10.15 0.20 -2.75 -0.50 -5.50 -3.20 -6.50 -6.35 -1.80 -5.50 -0.80 -10.70 3.20 -16.65 1.35 -2.05 2.80 -4.90 3.25 -6.25 1.60 -5.45 6.30 -9.55 12.10 -10.55 5.50 -1 19.90 -0.35 27.85 1.20 5.85 1.15 7.70 1.25 18.35 1.30 11.15 0 24.90 0.85 33.40 2.05 7.20 1 10.15 3.55 10.10 8.70 -0.05 3.55 -1.95 10.50 -3.40 12.25 -0.65 0.75 -1.20 1.75 -1.20 2.25 0 2.15 -6.55 9.25 -10.30 11.15 -1.75 0.90 -6.70 2.20 -7.60 2.05 -0.20 -0.05 -3.50 -0.30 -7.35 -0.50z m12.15 -6.90 c1.70 -0.90 3.80 -2.90 7.90 -7.75 0.85 -1 1.70 -2.55 1.90 -3.45 0.15 -0.85 0.65 -2.85 1.05 -4.35 1.05 -3.75 1 -6.35 -0.10 -6.70 -4.50 -1.40 -22.95 -2.80 -36.30 -2.80 -11 0 -12.65 -0.10 -20.70 -1.50 -9.45 -1.65 -20.10 -2.05 -25.15 -0.95 -3.95 0.85 -7 4 -7 7.30 0 0.90 -1.05 2.85 -2.95 5.55 -1.65 2.25 -3.25 4.90 -3.55 5.90 -0.90 2.60 -0.40 7 0.90 8.30 1 1 1.20 1.05 9.45 0.50 5.95 -0.40 15.75 -0.40 33.65 -0.05 13.90 0.25 25.50 0.55 25.75 0.70 0.30 0.10 3.40 0.20 6.90 0.20 5.35 0.05 6.70 -0.10 8.25 -0.90z"/>
  <path d="M308.50 250.80 c-2.65 -0.90 -6.40 -1.95 -8.35 -2.30 -4.85 -0.90 -15.95 -0.40 -22.40 0.95 -7.80 1.70 -24.25 1.95 -38.75 0.60 -6.20 -0.55 -15.20 -1.25 -20 -1.55 -4.80 -0.25 -10.90 -0.60 -13.50 -0.80 -2.60 -0.15 -8.35 -0.70 -12.70 -1.25 -10.85 -1.35 -20.30 -1.90 -38.30 -2.25 -12.15 -0.20 -17.50 -0.55 -26.25 -1.60 -10.90 -1.30 -19.45 -1.50 -41.70 -0.95 -3.70 0.10 -3.75 0.10 -4.70 -1.50 -1.60 -2.80 -1.30 -4.15 2.05 -8.45 6.75 -8.75 9.25 -11.90 15.40 -19.25 12 -14.35 14.65 -17.85 17 -22.45 0.75 -1.50 1.70 -3.15 2.10 -3.60 1 -1.20 3.25 -1.15 4.35 0.10 0.80 0.90 0.85 1.35 0.45 2.90 l-0.50 1.85 4.05 -0.15 c3.10 -0.15 5.15 0.10 9.10 1.10 6.10 1.55 9.25 1.60 16.40 0.30 7.20 -1.30 8.70 -1.25 14.80 0.50 8.90 2.60 17.90 3.85 35.20 5 4.40 0.30 11.45 0.90 15.70 1.25 9.10 0.90 22.80 0.95 31.85 0.20 3.55 -0.25 17.95 -0.70 31.95 -0.90 l25.50 -0.35 7.25 -2.55 c4 -1.40 8.90 -3.10 10.85 -3.85 2 -0.70 4.30 -1.30 5.10 -1.30 2 0 4.40 2.15 5.05 4.45 0.75 2.85 -0.05 6.05 -4.20 16.50 -4.60 11.65 -5.20 13.55 -7.80 25.55 -1.15 5.35 -2.45 10.60 -2.85 11.65 -1.75 4.25 -4.60 4.80 -12.15 2.15z m7.10 -6.10 c0.20 -0.80 1.20 -5.25 2.20 -9.95 1.85 -8.80 4.90 -18.30 8.95 -28.20 2.40 -5.80 3.35 -9.55 2.35 -9.55 -0.30 0 -3.30 1.05 -6.70 2.30 -10.45 3.90 -14 4.75 -20.70 5.05 l-6.10 0.30 -0.30 3.40 c-0.30 2.80 -0.60 3.60 -1.60 4.40 -1.15 0.90 -2.90 0.90 -3.50 0 -0.40 -0.70 -1.20 -0.55 -1.20 0.20 0 0.40 -0.55 1.20 -1.25 1.85 -1.20 1.10 -2.40 1.20 -4.85 0.25 -0.75 -0.30 -0.80 -0.15 -0.25 1.20 0.70 1.85 -0.70 8.50 -2.10 9.75 -1.20 1.10 -2.85 1 -4.05 -0.20 -1.20 -1.20 -1.20 -0.85 -0.05 -5.75 0.55 -2.20 0.90 -4.10 0.80 -4.20 -0.10 -0.10 -2.65 0.20 -5.70 0.65 -7.35 1.05 -8.35 1.05 -9.25 -0.30 -0.45 -0.60 -0.80 -1.50 -0.80 -2 0 -1.15 1.95 -2.90 3.25 -2.90 0.85 0 1.25 -0.45 1.65 -1.95 0.65 -2.10 2.80 -3.55 5.30 -3.55 1.45 0 3.80 2 3.80 3.25 0 0.90 -0.05 0.90 3.65 0.25 1.60 -0.25 3.45 -0.90 4.20 -1.50 1.60 -1.25 3.40 -1.30 4.50 -0.05 1.10 1.30 1.65 0.90 1.65 -1.30 l0 -1.80 -16.10 0.30 c-8.90 0.20 -18.55 0.50 -21.50 0.65 l-5.35 0.35 0.85 1.50 c0.45 0.85 1.35 2 2 2.65 1.35 1.40 1.40 2.20 0.15 3.80 -0.85 1.05 -1.35 1.20 -3.90 1.15 -1.60 -0.05 -3.80 -0.30 -4.90 -0.60 -1.10 -0.35 -2.80 -0.75 -3.75 -1 -1.05 -0.25 -2 -0.95 -2.45 -1.75 -0.65 -1.15 -0.65 -1.45 0.15 -2.60 0.80 -1.30 1.05 -1.35 4.05 -1.20 2.05 0.05 3.45 -0.10 3.85 -0.50 0.30 -0.30 0.50 -0.65 0.35 -0.80 -0.10 -0.10 -5.85 -0.30 -12.75 -0.40 l-12.60 -0.25 1.20 1.75 c0.75 1.05 1.10 2.15 0.90 2.70 -0.15 0.55 0 0.90 0.35 0.90 0.95 0 2.95 2.05 2.95 3.05 0 1.85 -1.65 2.90 -5.95 3.70 -5.30 0.95 -6.80 0.95 -7.80 -0.05 -0.45 -0.45 -0.85 -0.75 -0.90 -0.65 -0.15 0.30 -1.90 5.05 -2.20 6 -0.20 0.70 0.55 0.85 5.45 1.10 3.10 0.15 6 0.40 6.45 0.60 1.20 0.45 2.05 2.60 1.50 3.70 -1.10 1.95 -1.60 2.05 -8.95 1.65 -5.90 -0.40 -7.25 -0.65 -8.80 -1.60 -1.70 -1.05 -1.90 -1.05 -2.75 -0.30 -0.80 0.70 -1.60 0.75 -6.55 0.30 -6.20 -0.50 -7.50 -1.15 -7.50 -3.55 0 -0.95 0.40 -1.70 1.20 -2.20 1 -0.65 1.95 -0.70 6.80 -0.25 3.10 0.30 5.80 0.65 6 0.75 0.20 0.10 1.30 -2.20 2.45 -5.15 1.15 -2.95 2.45 -5.85 2.85 -6.45 1.20 -1.85 4.55 -1.30 5.30 0.85 0.10 0.40 0.95 0.35 2.75 0 l2.60 -0.55 -1.75 -2.25 c-1.05 -1.40 -1.70 -2.85 -1.70 -3.75 0 -1.45 0 -1.45 -3.25 -1.55 -1.80 -0.05 -3.65 -0.10 -4.10 -0.10 -0.70 -0.05 -1 0.55 -1.30 2.70 -0.20 1.50 -0.40 3.85 -0.40 5.15 0 1.75 -0.30 2.70 -1 3.40 -0.95 0.95 -1.55 1 -8.45 0.85 -7.20 -0.15 -7.40 -0.20 -8.40 -1.40 l-1 -1.25 -1.25 1.35 c-0.85 0.90 -1.40 2.20 -1.60 3.75 -0.50 4.10 -0.65 4.35 -2.45 5.35 -1.45 0.75 -2.95 0.95 -9.75 1 -7.60 0.05 -8.10 0.10 -8.35 1.05 -0.35 1 -2.45 5.80 -4.25 9.45 -0.50 1.10 -0.95 2.05 -0.95 2.10 0 0.05 3 0.25 6.65 0.40 18.25 0.90 24.90 1.40 32.10 2.30 4.30 0.55 13.75 1.30 20.90 1.75 7.20 0.40 18.40 1.20 24.85 1.80 14.75 1.35 28.40 0.95 42 -1.25 2.60 -0.45 6.70 -0.80 9.15 -0.80 l4.35 0 0 -4 c0 -3 -0.15 -4 -0.65 -4 -0.40 0 -1.10 -0.45 -1.60 -1 -0.70 -0.75 -1.55 -1 -3.40 -1 -2.85 0 -4.35 -1 -4.35 -2.85 0 -2.05 1.65 -3.15 4.90 -3.15 1.60 0 3.30 0.30 3.85 0.65 1.10 0.75 3.85 0.55 11.70 -0.70 4.15 -0.65 4.15 -0.65 5.10 0.50 2.10 2.60 0.60 4.25 -5.05 5.45 l-4.25 0.95 -0.15 4.35 c-0.15 4.70 0.25 5.80 2.10 5.80 0.55 0.05 3.30 0.80 6.05 1.70 2.75 0.95 5.20 1.65 5.45 1.60 0.30 -0.05 0.70 -0.80 0.90 -1.60z m-166.60 -7.35 c0 -1 7 -16.45 7.90 -17.45 0.95 -1.10 2.75 -1.15 3.80 -0.15 0.55 0.60 1.05 0.65 2.05 0.25 0.70 -0.25 2.70 -0.50 4.40 -0.55 1.70 0 4.10 -0.20 5.35 -0.35 2.15 -0.35 2.25 -0.40 2.55 -2.35 0.35 -2.70 1.60 -4.95 3.60 -6.45 2.20 -1.70 4.10 -1.70 5.15 0 0.60 0.85 1 1.10 1.35 0.75 0.35 -0.35 2.85 -0.55 5.90 -0.55 l5.35 0 0.35 -3 c0.20 -1.65 0.35 -3.15 0.30 -3.35 0 -0.25 -2.80 -0.65 -6.15 -0.95 -3.40 -0.35 -7.65 -0.75 -9.50 -0.95 -3.25 -0.35 -3.40 -0.35 -3.40 0.70 0 0.65 -0.55 1.40 -1.45 1.95 -1.10 0.65 -1.35 1.10 -1 1.60 0.70 1.20 0.50 2.40 -0.60 3.45 -0.90 0.80 -2.10 1 -8.25 1.30 -6.55 0.35 -7.35 0.30 -8.20 -0.50 -1.15 -1.05 -1.30 -2.65 -0.30 -4 0.60 -0.80 1.75 -1.05 7.75 -1.45 6.85 -0.45 7.05 -0.50 6.75 -1.50 -0.90 -2.95 -1.20 -3.25 -3.30 -3.85 -1.20 -0.30 -3.50 -1 -5.15 -1.50 -3.45 -1.10 -5.25 -1.15 -9.75 -0.25 l-3.25 0.60 -2.75 6.05 c-3.10 6.80 -3.65 7.65 -5.20 7.65 -1.35 0 -2 -0.45 -2.75 -1.90 -0.50 -0.95 -0.30 -1.80 1.45 -5.85 1.10 -2.60 2 -4.85 2 -5 0 -0.15 -0.90 -0.25 -2.05 -0.25 -1.10 0 -4.30 -0.60 -7.10 -1.30 -4.40 -1.15 -5.75 -1.25 -9.70 -1 -3.20 0.20 -4.70 0.15 -4.95 -0.25 -0.25 -0.40 -0.65 -0.20 -1.30 0.60 -2.20 2.80 -2.45 2.70 5.35 2.55 6.70 -0.15 7.25 -0.10 8.20 0.85 1.15 1.15 1.40 3.50 0.45 4.45 -0.40 0.40 -3 0.60 -8.45 0.60 l-7.85 0 -1.05 -1.35 -1 -1.40 -0.85 1.20 c-0.50 0.65 -4.40 5.45 -8.65 10.55 -4.30 5.15 -9.80 11.90 -12.25 15 l-4.45 5.65 5.40 -0.30 c3 -0.20 7.35 -0.35 9.70 -0.35 l4.30 0 0 -3.60 c0 -3.80 1.30 -8.05 3.35 -11 1.30 -1.85 3.55 -1.90 4.70 -0.10 0.90 1.35 0.95 1.20 -1.20 7.20 -0.55 1.50 -1.20 3.90 -1.45 5.30 l-0.45 2.55 5.55 0.35 c3 0.20 8.55 0.75 12.25 1.25 8.30 1.15 18.50 1.35 18.50 0.40z"/>
  <path d="M231.40 240.65 c-1.40 -1.70 -2.95 -5.25 -2.65 -6.20 0.20 -0.50 1.40 -2.05 2.70 -3.45 2.65 -2.80 4.35 -3.20 6.05 -1.50 1.30 1.30 1.25 2.75 -0.25 6.85 -1.20 3.45 -2.65 5.15 -4.25 5.15 -0.45 0 -1.20 -0.40 -1.60 -0.85z"/>
  <path d="M268.85 239.75 c-0.75 -0.75 -1.85 -4.85 -1.85 -6.95 0 -2.45 3.50 -3.75 5.15 -1.90 0.40 0.45 0.90 2 1.10 3.35 0.20 1.40 0.45 2.90 0.55 3.35 0.60 2.05 -3.35 3.80 -4.95 2.15z"/>
  <path d="M243 239 c-0.55 -0.55 -1 -1.45 -1 -2.05 0 -1.10 2.85 -5.75 4.50 -7.20 0.55 -0.50 1 -1.40 1 -2.05 0 -1.05 -0.25 -1.15 -4.35 -1.45 -5.40 -0.45 -6.55 -0.85 -7.15 -2.55 -0.40 -1.05 -0.35 -1.60 0.30 -2.60 0.80 -1.20 0.90 -1.25 5.65 -0.95 2.65 0.20 5.25 0.40 5.80 0.45 0.80 0.10 1.05 -0.20 1.15 -1.35 0.35 -3.05 3.45 -4.35 5.35 -2.25 0.85 0.95 0.85 1.20 0.05 6.05 -0.90 5.50 -1.45 6.95 -2.55 6.95 -0.50 0 -0.75 0.55 -0.75 1.65 0 2.55 -4.25 8.35 -6.10 8.35 -0.50 0 -1.35 -0.45 -1.90 -1z"/>
  <path d="M226 225.10 c-0.60 -0.50 -1.10 -1.45 -1.10 -2.15 0 -1.50 2.90 -8.90 4 -10.10 1.15 -1.30 3.65 -0.95 4.55 0.70 0.65 1.20 0.60 1.65 -1.15 6 -2.45 6.20 -3.90 7.50 -6.30 5.55z"/>
  <path d="M294.50 219.85 c-1.35 -0.70 -1.75 -1.80 -1.30 -3.60 0.40 -1.55 1.05 -1.75 9.05 -2.75 8.85 -1.10 10.50 -0.55 9.55 3.25 -0.40 1.55 -2.05 2.05 -8.80 2.75 -3.15 0.30 -6.10 0.65 -6.50 0.75 -0.40 0.15 -1.30 -0.05 -2 -0.40z"/>
  <path d="M130.25 235 c-1.20 -1.30 -1.10 -2.65 0.50 -6.75 0.75 -1.90 1.80 -4.75 2.40 -6.25 0.55 -1.50 1.35 -3.15 1.80 -3.65 1.10 -1.30 3.60 -0.95 4.50 0.70 0.65 1.20 0.55 1.75 -1.75 7.95 -1.30 3.65 -2.85 7.15 -3.35 7.80 -1.10 1.45 -2.90 1.55 -4.10 0.20z"/>
  <path d="M148.05 217.80 c-0.95 -1.15 -0.85 -2.40 0.65 -6.50 1.55 -4.15 2.65 -5.20 5 -4.60 1.95 0.50 2.20 2.40 0.80 6.30 -1.65 4.75 -2.20 5.50 -4.20 5.50 -0.90 0 -1.95 -0.30 -2.25 -0.70z"/>
  <path d="M107.60 217 c-1.30 -1.20 -1.40 -2.35 -0.30 -3.90 0.75 -1.10 0.95 -1.10 11.90 -1.10 10.15 0 11.20 0.10 11.95 0.90 1.20 1.30 1.05 3.40 -0.25 4.30 -0.95 0.65 -2.95 0.80 -11.65 0.80 -9.95 0 -10.65 -0.05 -11.65 -1z"/>
  <path d="M196 80.55 c-3.40 -1.10 -6.55 -3.65 -7.20 -5.85 -0.40 -1.40 1.40 -3.70 2.90 -3.70 0.60 0 1.65 0.60 2.35 1.30 1.40 1.55 3.50 2.70 4.85 2.70 0.50 0 2.15 -0.90 3.60 -2 3.05 -2.25 3.85 -2.40 5.40 -1 1.40 1.30 1.40 1.95 -0.05 4.05 -2.35 3.50 -8.15 5.70 -11.85 4.50z"/>
  <path d="M285.25 63.40 c-1.45 -0.85 -1.75 -1.40 -1.75 -3.75 0 -1.70 0.25 -2.30 1.25 -2.95 2.25 -1.50 4.75 0.25 4.75 3.30 0 1.50 -0.30 2.15 -1.30 2.95 -1.55 1.20 -1.60 1.20 -2.95 0.45z"/>
 </g>
 <g fill="#147dfe">
  <path d="M205.80 151.45 c-5.75 -0.65 -7.30 -1.70 -7.30 -4.90 0 -1.15 0.70 -2.25 3 -4.70 1.65 -1.80 3 -3.35 3 -3.55 0 -0.15 -0.85 -0.30 -1.90 -0.30 -3.25 0 -4.75 -2.85 -2.60 -5 0.85 -0.85 1.65 -1 5.45 -1 4.10 0 4.50 0.10 5.75 1.30 2.50 2.55 1.50 6.10 -2.80 9.80 -1.20 1 -2 1.95 -1.85 2.15 0.20 0.15 1.65 0.40 3.25 0.55 5.35 0.45 6.70 1.15 6.70 3.40 0 2.70 -2.45 3.25 -10.70 2.25z"/>
  <path d="M161 150.50 c-0.80 -0.80 -1 -1.65 -1 -4.25 0 -1.80 -0.15 -3.25 -0.35 -3.25 -0.15 0 -0.75 0.40 -1.25 0.85 -1.30 1.15 -3.70 1.05 -5.10 -0.30 l-1.20 -1.15 -1.45 2.90 c-1.60 3.30 -2.45 4 -4.35 3.50 -2.60 -0.65 -2.65 -2.20 -0.30 -7.85 2.20 -5.15 4.25 -8.15 6 -8.70 1.45 -0.45 2.85 0.55 3.55 2.50 0.35 0.95 0.80 1.70 1 1.65 0.20 -0.10 1.10 -1.15 2.05 -2.40 0.95 -1.25 2.30 -2.45 3.05 -2.70 1.20 -0.45 1.55 -0.30 2.75 0.85 1.35 1.35 1.35 1.40 1.45 9.20 0.05 7.55 0.05 7.80 -1.10 8.95 -1.45 1.45 -2.45 1.50 -3.75 0.20z"/>
  <path d="M182.70 149.10 c-2.05 -1.85 -2.95 -5.70 -2.15 -8.80 0.65 -2.50 5.45 -7.30 7.30 -7.30 1.75 0 6.05 4.20 6.45 6.30 0.55 3.05 -0.20 5 -2.95 7.95 -2.20 2.35 -2.95 2.80 -4.85 3.05 -2 0.25 -2.45 0.10 -3.80 -1.20z m5 -6.20 c0.80 -1.15 1.10 -2.90 0.45 -2.90 -0.80 0 -2.15 1.75 -2.15 2.85 0 1.45 0.70 1.50 1.70 0.05z"/>
  <path d="M169.30 148.25 c-1.85 -1.70 -2.30 -3.25 -2.30 -7.95 l0 -4.15 2.80 -2.10 c2.65 -2 2.90 -2.05 4.50 -1.55 4.25 1.40 5.95 4.50 5.20 9.30 -1.05 6.30 -6.60 9.80 -10.20 6.45z"/>
 </g>
</svg>
